<svg xmlns="http://www.w3.org/2000/svg" fill="#000000" width="24" height="24"><rect id="backgroundrect" width="100%" height="100%" x="0" y="0" fill="none" stroke="none"/><g class="currentLayer" style=""><title>Layer 1</title><path d="M21.822 7.431A1 1 0 0 0 21 7H7.333L6.179 4.23A1.994 1.994 0 0 0 4.333 3H2v2h2.333l4.744 11.385A1 1 0 0 0 10 17h8c.417 0 .79-.259.937-.648l3-8a1 1 0 0 0-.115-.921zM17.307 15h-6.64l-2.5-6h11.39l-2.25 6z" id="svg_1" class="" fill="#484848" fill-opacity="1"/><circle cx="10.238561630249023" cy="19.630718231201172" r="1.5" id="svg_2" class="selected" fill="#484848" fill-opacity="1"/><circle cx="17.5" cy="19.5" r="1.5" id="svg_3" class="" fill="#484848" fill-opacity="1"/></g></svg>