<svg xmlns="http://www.w3.org/2000/svg" fill="#000000" width="24" height="24"><rect id="backgroundrect" width="100%" height="100%" x="0" y="0" fill="none" stroke="none"/><g class="currentLayer" style=""><title>Layer 1</title><path d="M5 20a2 2 0 0 0 2 2h10a2 2 0 0 0 2-2V8h2V6h-4V4a2 2 0 0 0-2-2H9a2 2 0 0 0-2 2v2H3v2h2zM9 4h6v2H9zM8 8h9v12H7V8z" id="svg_1" class="" fill="#ffffff" fill-opacity="1"/><path d="M9 10h2v8H9zm4 0h2v8h-2z" id="svg_2" class="selected" fill="#ffffff" fill-opacity="1"/></g></svg>